# xmcd
#
# Track frame offsets: 
#        150
#        16082
#        32422
#        53390
#        69684
#        88133
#        103601
#        116646
#        131288
#        148410
#        165895
#        181845
#        197893
#        214254
#        230251
#        249267
#
# Disc length: 3588 seconds
#
# Revision: 4
# Processed by: cddbd v1.5.2PL0 Copyright (c) Steve Scherf et al.
# Submitted via: ExactAudioCopy v1.0b4
#
DISCID=cf0e0210
DTITLE=Shania Twain - Come on Over
DYEAR=1998
DGENRE=Country
TTITLE0=Your still the one
TTITLE1=When
TTITLE2=From this moment on
TTITLE3=Black eyes, blue tears
TTITLE4=I wont leave you lonely
TTITLE5=Holdin on to love (to save my life)
TTITLE6=Come on over
TTITLE7=Youve got a way
TTITLE8=Whatever you do, dont
TTITLE9=Man I feel like a woman
TTITLE10=Love gets me every time
TTITLE11=Dont be stupid (you know I love you)
TTITLE12=That dont impress me much
TTITLE13=Honey I'm home
TTITLE14=If you wanna touch her ask!
TTITLE15=Rock this country
EXTD=
EXTT0=
EXTT1=
EXTT2=
EXTT3=
EXTT4=
EXTT5=
EXTT6=
EXTT7=
EXTT8=
EXTT9=
EXTT10=
EXTT11=
EXTT12=
EXTT13=
EXTT14=
EXTT15=
PLAYORDER=
